<svg width="420" height="420" xmlns="http://www.w3.org/2000/svg"><g fill="none" fill-rule="evenodd" stroke="#E9E9EC" stroke-width=".547"><path d="M0 0h26.25v26.25H0zM0 26.25h26.25V52.5H0zM26.25 0H52.5v26.25H26.25zM26.25 26.25H52.5V52.5H26.25zM52.5 0h26.25v26.25H52.5zM52.5 26.25h26.25V52.5H52.5zM78.75 0H105v26.25H78.75zM78.75 26.25H105V52.5H78.75zM105 0h26.25v26.25H105zM105 26.25h26.25V52.5H105zM131.25 0h26.25v26.25h-26.25zM131.25 26.25h26.25V52.5h-26.25zM157.5 0h26.25v26.25H157.5zM157.5 26.25h26.25V52.5H157.5zM183.75 0H210v26.25h-26.25zM183.75 26.25H210V52.5h-26.25zM210 0h26.25v26.25H210zM210 26.25h26.25V52.5H210zM236.25 0h26.25v26.25h-26.25zM236.25 26.25h26.25V52.5h-26.25zM262.5 0h26.25v26.25H262.5zM262.5 26.25h26.25V52.5H262.5zM288.75 0H315v26.25h-26.25zM288.75 26.25H315V52.5h-26.25zM315 0h26.25v26.25H315zM315 26.25h26.25V52.5H315zM341.25 0h26.25v26.25h-26.25zM341.25 26.25h26.25V52.5h-26.25zM367.5 0h26.25v26.25H367.5zM367.5 26.25h26.25V52.5H367.5zM393.75 0H420v26.25h-26.25zM393.75 26.25H420V52.5h-26.25zM0 52.5h26.25v26.25H0zM26.25 52.5H52.5v26.25H26.25zM52.5 52.5h26.25v26.25H52.5zM78.75 52.5H105v26.25H78.75zM105 52.5h26.25v26.25H105zM131.25 52.5h26.25v26.25h-26.25zM157.5 52.5h26.25v26.25H157.5zM183.75 52.5H210v26.25h-26.25zM210 52.5h26.25v26.25H210zM236.25 52.5h26.25v26.25h-26.25zM262.5 52.5h26.25v26.25H262.5zM288.75 52.5H315v26.25h-26.25zM315 52.5h26.25v26.25H315zM341.25 52.5h26.25v26.25h-26.25zM367.5 52.5h26.25v26.25H367.5zM393.75 52.5H420v26.25h-26.25zM0 78.75h26.25V105H0zM26.25 78.75H52.5V105H26.25zM52.5 78.75h26.25V105H52.5zM78.75 78.75H105V105H78.75zM105 78.75h26.25V105H105zM131.25 78.75h26.25V105h-26.25zM157.5 78.75h26.25V105H157.5zM183.75 78.75H210V105h-26.25zM210 78.75h26.25V105H210zM236.25 78.75h26.25V105h-26.25zM262.5 78.75h26.25V105H262.5zM288.75 78.75H315V105h-26.25zM315 78.75h26.25V105H315zM341.25 78.75h26.25V105h-26.25zM367.5 78.75h26.25V105H367.5zM393.75 78.75H420V105h-26.25zM0 105h26.25v26.25H0zM26.25 105H52.5v26.25H26.25zM52.5 105h26.25v26.25H52.5zM78.75 105H105v26.25H78.75zM105 105h26.25v26.25H105zM131.25 105h26.25v26.25h-26.25zM157.5 105h26.25v26.25H157.5zM183.75 105H210v26.25h-26.25zM210 105h26.25v26.25H210zM236.25 105h26.25v26.25h-26.25zM262.5 105h26.25v26.25H262.5zM288.75 105H315v26.25h-26.25zM315 105h26.25v26.25H315zM341.25 105h26.25v26.25h-26.25zM367.5 105h26.25v26.25H367.5zM393.75 105H420v26.25h-26.25zM0 131.25h26.25v26.25H0zM26.25 131.25H52.5v26.25H26.25zM52.5 131.25h26.25v26.25H52.5zM78.75 131.25H105v26.25H78.75zM105 131.25h26.25v26.25H105zM131.25 131.25h26.25v26.25h-26.25zM157.5 131.25h26.25v26.25H157.5zM183.75 131.25H210v26.25h-26.25zM210 131.25h26.25v26.25H210zM236.25 131.25h26.25v26.25h-26.25zM262.5 131.25h26.25v26.25H262.5zM288.75 131.25H315v26.25h-26.25zM315 131.25h26.25v26.25H315zM341.25 131.25h26.25v26.25h-26.25zM367.5 131.25h26.25v26.25H367.5zM393.75 131.25H420v26.25h-26.25zM0 157.5h26.25v26.25H0zM26.25 157.5H52.5v26.25H26.25zM52.5 157.5h26.25v26.25H52.5zM78.75 157.5H105v26.25H78.75zM105 157.5h26.25v26.25H105zM131.25 157.5h26.25v26.25h-26.25zM157.5 157.5h26.25v26.25H157.5zM183.75 157.5H210v26.25h-26.25zM210 157.5h26.25v26.25H210zM236.25 157.5h26.25v26.25h-26.25zM262.5 157.5h26.25v26.25H262.5zM288.75 157.5H315v26.25h-26.25zM315 157.5h26.25v26.25H315zM341.25 157.5h26.25v26.25h-26.25zM367.5 157.5h26.25v26.25H367.5zM393.75 157.5H420v26.25h-26.25zM0 183.75h26.25V210H0zM26.25 183.75H52.5V210H26.25zM52.5 183.75h26.25V210H52.5zM78.75 183.75H105V210H78.75zM105 183.75h26.25V210H105zM131.25 183.75h26.25V210h-26.25zM157.5 183.75h26.25V210H157.5zM183.75 183.75H210V210h-26.25zM210 183.75h26.25V210H210zM236.25 183.75h26.25V210h-26.25zM262.5 183.75h26.25V210H262.5zM288.75 183.75H315V210h-26.25zM315 183.75h26.25V210H315zM341.25 183.75h26.25V210h-26.25zM367.5 183.75h26.25V210H367.5zM393.75 183.75H420V210h-26.25zM0 210h26.25v26.25H0zM26.25 210H52.5v26.25H26.25zM52.5 210h26.25v26.25H52.5zM78.75 210H105v26.25H78.75zM105 210h26.25v26.25H105zM131.25 210h26.25v26.25h-26.25zM157.5 210h26.25v26.25H157.5zM183.75 210H210v26.25h-26.25zM210 210h26.25v26.25H210zM236.25 210h26.25v26.25h-26.25zM262.5 210h26.25v26.25H262.5zM288.75 210H315v26.25h-26.25zM315 210h26.25v26.25H315zM341.25 210h26.25v26.25h-26.25zM367.5 210h26.25v26.25H367.5zM393.75 210H420v26.25h-26.25zM0 236.25h26.25v26.25H0zM26.25 236.25H52.5v26.25H26.25zM52.5 236.25h26.25v26.25H52.5zM78.75 236.25H105v26.25H78.75zM105 236.25h26.25v26.25H105zM131.25 236.25h26.25v26.25h-26.25zM157.5 236.25h26.25v26.25H157.5zM183.75 236.25H210v26.25h-26.25zM210 236.25h26.25v26.25H210zM236.25 236.25h26.25v26.25h-26.25zM262.5 236.25h26.25v26.25H262.5zM288.75 236.25H315v26.25h-26.25zM315 236.25h26.25v26.25H315zM341.25 236.25h26.25v26.25h-26.25zM367.5 236.25h26.25v26.25H367.5zM393.75 236.25H420v26.25h-26.25zM0 262.5h26.25v26.25H0zM26.25 262.5H52.5v26.25H26.25zM52.5 262.5h26.25v26.25H52.5zM78.75 262.5H105v26.25H78.75zM105 262.5h26.25v26.25H105zM131.25 262.5h26.25v26.25h-26.25zM157.5 262.5h26.25v26.25H157.5zM183.75 262.5H210v26.25h-26.25zM210 262.5h26.25v26.25H210zM236.25 262.5h26.25v26.25h-26.25zM262.5 262.5h26.25v26.25H262.5zM288.75 262.5H315v26.25h-26.25zM315 262.5h26.25v26.25H315zM341.25 262.5h26.25v26.25h-26.25zM367.5 262.5h26.25v26.25H367.5zM393.75 262.5H420v26.25h-26.25zM0 288.75h26.25V315H0zM26.25 288.75H52.5V315H26.25zM52.5 288.75h26.25V315H52.5zM78.75 288.75H105V315H78.75zM105 288.75h26.25V315H105zM131.25 288.75h26.25V315h-26.25zM157.5 288.75h26.25V315H157.5zM183.75 288.75H210V315h-26.25zM210 288.75h26.25V315H210zM236.25 288.75h26.25V315h-26.25zM262.5 288.75h26.25V315H262.5zM288.75 288.75H315V315h-26.25zM315 288.75h26.25V315H315zM341.25 288.75h26.25V315h-26.25zM367.5 288.75h26.25V315H367.5zM393.75 288.75H420V315h-26.25zM0 315h26.25v26.25H0zM26.25 315H52.5v26.25H26.25zM52.5 315h26.25v26.25H52.5zM78.75 315H105v26.25H78.75zM105 315h26.25v26.25H105zM131.25 315h26.25v26.25h-26.25zM157.5 315h26.25v26.25H157.5zM183.75 315H210v26.25h-26.25zM210 315h26.25v26.25H210zM236.25 315h26.25v26.25h-26.25zM262.5 315h26.25v26.25H262.5zM288.75 315H315v26.25h-26.25zM315 315h26.25v26.25H315zM341.25 315h26.25v26.25h-26.25zM367.5 315h26.25v26.25H367.5zM393.75 315H420v26.25h-26.25zM0 341.25h26.25v26.25H0zM26.25 341.25H52.5v26.25H26.25zM52.5 341.25h26.25v26.25H52.5zM78.75 341.25H105v26.25H78.75zM105 341.25h26.25v26.25H105zM131.25 341.25h26.25v26.25h-26.25zM157.5 341.25h26.25v26.25H157.5zM183.75 341.25H210v26.25h-26.25zM210 341.25h26.25v26.25H210zM236.25 341.25h26.25v26.25h-26.25zM262.5 341.25h26.25v26.25H262.5zM288.75 341.25H315v26.25h-26.25zM315 341.25h26.25v26.25H315zM341.25 341.25h26.25v26.25h-26.25zM367.5 341.25h26.25v26.25H367.5zM393.75 341.25H420v26.25h-26.25zM0 367.5h26.25v26.25H0zM26.25 367.5H52.5v26.25H26.25zM52.5 367.5h26.25v26.25H52.5zM78.75 367.5H105v26.25H78.75zM105 367.5h26.25v26.25H105zM131.25 367.5h26.25v26.25h-26.25zM157.5 367.5h26.25v26.25H157.5zM183.75 367.5H210v26.25h-26.25zM210 367.5h26.25v26.25H210zM236.25 367.5h26.25v26.25h-26.25zM262.5 367.5h26.25v26.25H262.5zM288.75 367.5H315v26.25h-26.25zM315 367.5h26.25v26.25H315zM341.25 367.5h26.25v26.25h-26.25zM367.5 367.5h26.25v26.25H367.5zM393.75 367.5H420v26.25h-26.25zM0 393.75h26.25V420H0zM26.25 393.75H52.5V420H26.25zM52.5 393.75h26.25V420H52.5zM78.75 393.75H105V420H78.75zM105 393.75h26.25V420H105zM131.25 393.75h26.25V420h-26.25zM157.5 393.75h26.25V420H157.5zM183.75 393.75H210V420h-26.25zM210 393.75h26.25V420H210zM236.25 393.75h26.25V420h-26.25zM262.5 393.75h26.25V420H262.5zM288.75 393.75H315V420h-26.25zM315 393.75h26.25V420H315zM341.25 393.75h26.25V420h-26.25zM367.5 393.75h26.25V420H367.5zM393.75 393.75H420V420h-26.25z"/></g></svg>